<svg version="1.1" xmlns="http://www.w3.org/2000/svg" xmlns:xlink="http://www.w3.org/1999/xlink" width="319.29332" height="319.29332" viewBox="0,0,319.29332,319.29332"><defs><radialGradient cx="199.50377" cy="143.91557" r="99.35235" gradientUnits="userSpaceOnUse" id="color-1"><stop offset="0" stop-color="#000000" stop-opacity="0"/><stop offset="1" stop-color="#000000" stop-opacity="0"/></radialGradient><linearGradient x1="156.58355" y1="143.61355" x2="238.79207" y2="143.61355" gradientUnits="userSpaceOnUse" id="color-2"><stop offset="0" stop-color="#b7b7b7"/><stop offset="1" stop-color="#000000"/></linearGradient><radialGradient cx="280.49622" cy="216.08443" r="99.35235" gradientUnits="userSpaceOnUse" id="color-3"><stop offset="0" stop-color="#000000" stop-opacity="0"/><stop offset="1" stop-color="#000000" stop-opacity="0"/></radialGradient><linearGradient x1="241.20793" y1="216.38643" x2="323.41645" y2="216.38643" gradientUnits="userSpaceOnUse" id="color-4"><stop offset="0" stop-color="#000000"/><stop offset="1" stop-color="#b7b7b7"/></linearGradient></defs><g transform="translate(-80.35334,-20.35334)"><g data-paper-data="{&quot;isPaintingLayer&quot;:true}" fill-rule="nonzero" stroke-linejoin="miter" stroke-miterlimit="10" stroke-dasharray="" stroke-dashoffset="0" style="mix-blend-mode: normal"><path d="M399.64666,180c0,88.17042 -71.47624,159.64666 -159.64666,159.64666c-88.17042,0 -159.64666,-71.47624 -159.64666,-159.64666c0,-88.17042 71.47624,-159.64666 159.64666,-159.64666c88.17042,0 159.64666,71.47624 159.64666,159.64666z" fill="#ffffff" stroke="none" stroke-width="0" stroke-linecap="butt"/><g fill="none" stroke="#000000" stroke-width="2" stroke-linecap="round"><path d=""/><path d="" data-paper-data="{&quot;index&quot;:null}"/></g><path d="" fill="none" stroke="#000000" stroke-width="2" stroke-linecap="round"/><path d="" data-paper-data="{&quot;index&quot;:null}" fill="none" stroke="#000000" stroke-width="2" stroke-linecap="round"/><path d="M238.79207,223.3384c0,0 -82.20852,-66.75892 -82.20852,-76.80458c0,-10.72264 82.20852,-82.64507 82.20852,-82.64507" fill="url(#color-1)" stroke="url(#color-2)" stroke-width="33" stroke-linecap="round"/><path d="M241.20793,136.6616c0,0 82.20852,66.75892 82.20852,76.80458c0,10.72264 -82.20852,82.64507 -82.20852,82.64507" fill="url(#color-3)" stroke="url(#color-4)" stroke-width="33" stroke-linecap="round"/></g></g></svg>