<svg version="1.1" xmlns="http://www.w3.org/2000/svg" xmlns:xlink="http://www.w3.org/1999/xlink" width="458.17346" height="191.45339" viewBox="0,0,458.17346,191.45339"><defs><radialGradient cx="46.58284" cy="155.58128" r="67.23279" gradientUnits="userSpaceOnUse" id="color-1"><stop offset="0" stop-color="#000000" stop-opacity="0"/><stop offset="1" stop-color="#000000" stop-opacity="0"/></radialGradient><linearGradient x1="17.53827" y1="155.3769" x2="73.16965" y2="155.3769" gradientUnits="userSpaceOnUse" id="color-2"><stop offset="0" stop-color="#b7b7b7"/><stop offset="1" stop-color="#000000"/></linearGradient><radialGradient cx="101.39129" cy="204.41872" r="67.23279" gradientUnits="userSpaceOnUse" id="color-3"><stop offset="0" stop-color="#000000" stop-opacity="0"/><stop offset="1" stop-color="#000000" stop-opacity="0"/></radialGradient><linearGradient x1="74.80448" y1="204.62308" x2="130.43586" y2="204.62308" gradientUnits="userSpaceOnUse" id="color-4"><stop offset="0" stop-color="#000000"/><stop offset="1" stop-color="#b7b7b7"/></linearGradient><linearGradient x1="332.18047" y1="124.4618" x2="401.37914" y2="124.4618" gradientUnits="userSpaceOnUse" id="color-5"><stop offset="0" stop-color="#000000"/><stop offset="1" stop-color="#ff0000"/></linearGradient><linearGradient x1="271.09798" y1="180.01442" x2="348.80913" y2="180.01442" gradientUnits="userSpaceOnUse" id="color-6"><stop offset="0" stop-color="#000000"/><stop offset="1" stop-color="#ff0000"/></linearGradient><linearGradient x1="384.72015" y1="179.99389" x2="462.46173" y2="179.99389" gradientUnits="userSpaceOnUse" id="color-7"><stop offset="0" stop-color="#000000"/><stop offset="1" stop-color="#ff0000"/></linearGradient><linearGradient x1="332.18047" y1="235.46481" x2="401.38704" y2="235.46481" gradientUnits="userSpaceOnUse" id="color-8"><stop offset="0" stop-color="#000000"/><stop offset="1" stop-color="#ff0000"/></linearGradient></defs><g transform="translate(-4.28827,-84.2733)"><g data-paper-data="{&quot;isPaintingLayer&quot;:true}" stroke-linejoin="miter" stroke-miterlimit="10" stroke-dasharray="" stroke-dashoffset="0" style="mix-blend-mode: normal"><path d="M73.16965,209.32755c0,0 -55.63138,-45.17647 -55.63138,-51.97447c0,-7.25612 55.63138,-55.92679 55.63138,-55.92679" fill="url(#color-1)" fill-rule="nonzero" stroke="url(#color-2)" stroke-width="26.5" stroke-linecap="round"/><path d="M74.80448,150.67245c0,0 55.63138,45.17647 55.63138,51.97447c0,7.25612 -55.63138,55.92679 -55.63138,55.92679" fill="url(#color-3)" fill-rule="nonzero" stroke="url(#color-4)" stroke-width="26.5" stroke-linecap="round"/><path d="M206.1192,146.21622v67.56757" fill="none" fill-rule="nonzero" stroke="#000000" stroke-width="22.5" stroke-linecap="round"/><path d="M239.90299,180h-67.56757" data-paper-data="{&quot;index&quot;:null}" fill="none" fill-rule="nonzero" stroke="#000000" stroke-width="22.5" stroke-linecap="round"/><path d="M348.41231,84.34593c12.83589,-0.20016 25.65041,0.01341 38.44358,0.64073c8.121,2.78908 12.891,8.41325 14.30956,16.87246c0.28491,11.39071 0.28491,22.78124 0,34.17208c-1.01576,5.94893 -3.93449,10.71893 -8.7566,14.30956c-4.7764,3.59917 -9.47506,7.30086 -14.09598,11.10593c-7.68872,4.27151 -15.37744,4.27151 -23.06615,0c-5.55296,-4.41375 -11.10593,-8.82793 -16.65889,-13.24168c-3.4753,-3.31982 -5.54015,-7.37775 -6.19369,-12.17381c-0.28491,-11.39083 -0.28491,-22.78137 0,-34.17208c1.71159,-9.18567 7.05098,-15.02341 16.01816,-17.51319zM352.68382,98.01476c9.3986,-0.07116 18.79592,0 28.19197,0.21358c3.07933,0.36419 5.14375,2.00163 6.19369,4.91223c0.41519,10.84793 0.27252,21.66894 -0.42715,32.46347c-0.90897,1.33698 -1.97685,2.5471 -3.20363,3.63078c-4.12927,3.27497 -8.25811,6.54951 -12.38738,9.82447c-2.84782,1.99351 -5.6952,1.99351 -8.54302,0c-5.1728,-4.04768 -10.2277,-8.24786 -15.16386,-12.60096c-0.3682,-0.67789 -0.65312,-1.38995 -0.8543,-2.13575c-0.28491,-10.39386 -0.28491,-20.78803 0,-31.18202c1.14818,-2.87904 3.21261,-4.58764 6.19369,-5.12581z" fill="url(#color-5)" fill-rule="evenodd" stroke="none" stroke-width="1" stroke-linecap="butt" opacity="0.969"/><path d="M288.61118,145.42852c9.25602,-0.07133 18.51101,0 27.76481,0.21358c3.82044,0.48738 7.23765,1.91107 10.25163,4.27151c6.48885,6.06212 12.82521,12.25582 19.00822,18.58107c4.49876,8.29228 4.21427,16.40815 -0.8543,24.3476c-6.64946,6.65074 -13.55478,12.9871 -20.71682,19.00822c-2.38991,1.36603 -4.95282,2.22033 -7.68872,2.5629c-9.25508,0.28491 -18.50987,0.28491 -27.76482,0c-9.18264,-1.63599 -14.94917,-6.97537 -17.29961,-16.01816c-0.28478,-12.24514 -0.28478,-24.48985 0,-36.73498c2.42515,-9.04791 8.19169,-14.45863 17.29961,-16.23174zM289.89263,159.52449c8.40185,-0.07133 16.80241,0 25.2019,0.21358c0.8543,0.42715 1.7086,0.8543 2.5629,1.28145c5.33938,5.05448 10.67878,10.10938 16.01816,15.16386c1.4237,2.5629 1.4237,5.12581 0,7.68872c-5.33938,5.05448 -10.67878,10.10938 -16.01816,15.16386c-0.8543,0.42715 -1.7086,0.8543 -2.5629,1.28145c-8.40078,0.28491 -16.80126,0.28491 -25.2019,0c-3.03722,-1.16014 -4.67466,-3.36723 -4.91223,-6.62084c-0.28478,-9.11241 -0.28478,-18.22525 0,-27.33766c0.28752,-3.29077 1.92492,-5.56877 4.91223,-6.83441z" fill="url(#color-6)" fill-rule="evenodd" stroke="none" stroke-width="1" stroke-linecap="butt" opacity="0.969"/><path d="M417.18362,145.42852c9.98594,-0.19136 19.95265,0.02221 29.90057,0.64073c8.07614,2.2387 13.13062,7.43584 15.16386,15.59101c0.28491,12.24514 0.28491,24.48985 0,36.73498c-2.35061,9.04279 -8.11715,14.38217 -17.29961,16.01816c-9.25508,0.28491 -18.50974,0.28491 -27.76481,0c-3.82044,-0.48738 -7.23765,-1.91107 -10.25163,-4.27151c-6.48885,-6.06212 -12.82521,-12.25582 -19.00822,-18.58107c-4.27151,-7.68872 -4.27151,-15.37744 0,-23.06615c6.18301,-6.32525 12.51937,-12.51894 19.00822,-18.58107c3.09471,-2.33267 6.51192,-3.8277 10.25163,-4.48508zM418.46507,159.52449c8.40163,-0.07133 16.80241,0 25.2019,0.21358c3.03705,1.16014 4.67474,3.36723 4.91223,6.62084c0.28491,9.11241 0.28491,18.22525 0,27.33766c-0.2375,3.25361 -1.87519,5.4607 -4.91223,6.62084c-8.40078,0.28491 -16.80113,0.28491 -25.2019,0c-0.8543,-0.42715 -1.7086,-0.8543 -2.5629,-1.28145c-5.33938,-5.05448 -10.67878,-10.10938 -16.01816,-15.16386c-1.4237,-2.5629 -1.4237,-5.12581 0,-7.68872c5.89468,-5.97029 12.08838,-11.52325 18.58107,-16.65889z" fill="url(#color-7)" fill-rule="evenodd" stroke="none" stroke-width="1" stroke-linecap="butt" opacity="0.969"/><path d="M362.93545,195.40517c5.50427,-0.68814 10.63008,0.37974 15.37744,3.20363c5.55296,4.41375 11.10593,8.82793 16.65889,13.24168c3.25745,3.45351 5.32188,7.51145 6.19369,12.17381c0.07133,5.6952 0.14224,11.39083 0.21358,17.08604c0.05339,6.42563 -0.16018,12.8329 -0.64073,19.22179c-1.97771,7.38886 -6.60546,12.30109 -13.88241,14.73671c-12.79402,0.69839 -25.60855,0.84064 -38.44358,0.42715c-9.04663,-2.35403 -14.38601,-8.12056 -16.01816,-17.29961c-0.28491,-11.39083 -0.28491,-22.78124 0,-34.17208c0.65354,-4.79605 2.71839,-8.85399 6.19369,-12.17381c5.10659,-3.82428 10.09016,-7.81131 14.95028,-11.96023c2.8948,-2.08877 6.0271,-3.5838 9.39732,-4.48508zM365.0712,209.50116c2.20196,-0.26057 4.19548,0.2375 5.98011,1.49503c4.12927,3.27497 8.25811,6.54951 12.38738,9.82447c1.22678,1.08369 2.29466,2.2938 3.20363,3.63078c0.69967,10.79453 0.84234,21.61554 0.42715,32.46347c-0.72017,2.09048 -2.07296,3.58551 -4.05793,4.48508c-10.09144,0.69027 -20.2004,0.83252 -30.32772,0.42715c-3.07933,-0.36436 -5.14376,-2.00163 -6.1937,-4.91223c-0.28491,-10.53653 -0.28491,-21.07264 0,-31.60917c0.88634,-1.74235 2.09645,-3.23738 3.63078,-4.48508c4.95025,-3.89092 9.93383,-7.66437 14.95028,-11.3195z" fill="url(#color-8)" fill-rule="evenodd" stroke="none" stroke-width="1" stroke-linecap="butt" opacity="0.969"/></g></g></svg>