<svg version="1.1" xmlns="http://www.w3.org/2000/svg" xmlns:xlink="http://www.w3.org/1999/xlink" width="319.29332" height="319.29332" viewBox="0,0,319.29332,319.29332"><defs><linearGradient x1="193.46118" y1="105.29688" x2="286.53869" y2="105.29688" gradientUnits="userSpaceOnUse" id="color-1"><stop offset="0" stop-color="#000000"/><stop offset="1" stop-color="#ff0000"/></linearGradient><linearGradient x1="111.30056" y1="180.0194" x2="215.82801" y2="180.0194" gradientUnits="userSpaceOnUse" id="color-2"><stop offset="0" stop-color="#000000"/><stop offset="1" stop-color="#ff0000"/></linearGradient><linearGradient x1="264.13107" y1="179.99178" x2="368.69944" y2="179.99178" gradientUnits="userSpaceOnUse" id="color-3"><stop offset="0" stop-color="#000000"/><stop offset="1" stop-color="#ff0000"/></linearGradient><linearGradient x1="193.46118" y1="254.60442" x2="286.54932" y2="254.60442" gradientUnits="userSpaceOnUse" id="color-4"><stop offset="0" stop-color="#000000"/><stop offset="1" stop-color="#ff0000"/></linearGradient></defs><g transform="translate(-80.35334,-20.35334)"><g data-paper-data="{&quot;isPaintingLayer&quot;:true}" stroke="none" stroke-linecap="butt" stroke-linejoin="miter" stroke-miterlimit="10" stroke-dasharray="" stroke-dashoffset="0" style="mix-blend-mode: normal"><path d="M399.64666,180c0,88.17042 -71.47624,159.64666 -159.64666,159.64666c-88.17042,0 -159.64666,-71.47624 -159.64666,-159.64666c0,-88.17042 71.47624,-159.64666 159.64666,-159.64666c88.17042,0 159.64666,71.47624 159.64666,159.64666z" fill="#ffffff" fill-rule="nonzero" stroke-width="0"/><path d="M215.29425,51.33796c17.26525,-0.26923 34.50177,0.01804 51.70956,0.86183c10.92336,3.75153 17.33937,11.31647 19.24745,22.69475c0.38323,15.32137 0.38323,30.64251 0,45.96406c-1.36628,8.00177 -5.29219,14.41778 -11.77829,19.24745c-6.42463,4.84116 -12.74468,9.82022 -18.96017,14.93832c-10.34191,5.74551 -20.68383,5.74551 -31.02574,0c-7.46916,-5.93683 -14.93832,-11.87424 -22.40748,-17.81107c-4.67454,-4.46541 -7.45192,-9.92364 -8.33099,-16.3747c-0.38323,-15.32154 -0.38323,-30.64269 0,-45.96406c2.30222,-12.35543 9.48411,-20.20764 21.54565,-23.55658zM221.03976,69.72358c12.64184,-0.09572 25.28195,0 37.92035,0.28728c4.14194,0.48986 6.91874,2.69234 8.33099,6.60733c0.55846,14.59129 0.36656,29.14638 -0.57455,43.66585c-1.22264,1.79834 -2.65902,3.42605 -4.30913,4.88368c-5.55418,4.40508 -11.10779,8.80959 -16.66197,13.21467c-3.83053,2.68143 -7.66048,2.68143 -11.49101,0c-6.95781,-5.44444 -13.75704,-11.094 -20.39655,-16.94925c-0.49526,-0.91181 -0.87849,-1.86959 -1.1491,-2.87275c-0.38323,-13.98054 -0.38323,-27.96149 0,-41.9422c1.54439,-3.87253 4.3212,-6.17073 8.33099,-6.89461z" fill="url(#color-1)" fill-rule="evenodd" stroke-width="1" opacity="0.969"/><path d="M134.85716,133.49871c12.45005,-0.09595 24.89873,0 37.3458,0.28728c5.13878,0.65556 9.73519,2.57054 13.78922,5.74551c8.728,8.15402 17.25089,16.48501 25.56751,24.99296c6.05117,11.15375 5.66852,22.07022 -1.1491,32.74939c-8.94403,8.94575 -18.23222,17.46864 -27.86571,25.56751c-3.21461,1.83741 -6.66192,2.98651 -10.34191,3.4473c-12.44879,0.38323 -24.89718,0.38323 -37.3458,0c-12.35135,-2.20053 -20.10778,-9.38241 -23.2693,-21.54565c-0.38305,-16.47065 -0.38305,-32.94072 0,-49.41136c3.26201,-12.17013 11.01845,-19.44797 23.2693,-21.83293zM136.58081,152.45888c11.30113,-0.09595 22.60053,0 33.89849,0.28728c1.1491,0.57455 2.2982,1.1491 3.4473,1.72365c7.18188,6.79866 14.36377,13.59789 21.54565,20.39655c1.91498,3.4473 1.91498,6.89461 0,10.34191c-7.18188,6.79866 -14.36377,13.59789 -21.54565,20.39655c-1.1491,0.57455 -2.2982,1.1491 -3.4473,1.72365c-11.29969,0.38323 -22.59898,0.38323 -33.89849,0c-4.08529,-1.56048 -6.28777,-4.52918 -6.60733,-8.90554c-0.38305,-12.25689 -0.38305,-24.51436 0,-36.77125c0.38673,-4.42634 2.58916,-7.49042 6.60733,-9.19281z" fill="url(#color-2)" fill-rule="evenodd" stroke-width="1" opacity="0.969"/><path d="M307.79692,133.49871c13.43185,-0.2574 26.83784,0.02988 40.21855,0.86183c10.86303,3.01122 17.66169,10.00178 20.39655,20.9711c0.38323,16.47065 0.38323,32.94072 0,49.41136c-3.16175,12.16324 -10.91819,19.34512 -23.2693,21.54565c-12.44879,0.38323 -24.89701,0.38323 -37.3458,0c-5.13878,-0.65556 -9.73519,-2.57054 -13.78922,-5.74551c-8.728,-8.15402 -17.25089,-16.48501 -25.56751,-24.99296c-5.74551,-10.34191 -5.74551,-20.68383 0,-31.02574c8.31662,-8.50795 16.83951,-16.83893 25.56751,-24.99296c4.16262,-3.13762 8.75903,-5.14855 13.78922,-6.03278zM309.52057,152.45888c11.30084,-0.09595 22.60053,0 33.89849,0.28728c4.08506,1.56048 6.28788,4.52918 6.60733,8.90554c0.38323,12.25689 0.38323,24.51436 0,36.77125c-0.31945,4.37635 -2.52228,7.34506 -6.60733,8.90554c-11.29969,0.38323 -22.5988,0.38323 -33.89849,0c-1.1491,-0.57455 -2.2982,-1.1491 -3.4473,-1.72365c-7.18188,-6.79866 -14.36377,-13.59789 -21.54565,-20.39655c-1.91498,-3.4473 -1.91498,-6.89461 0,-10.34191c7.9288,-8.0305 16.25979,-15.49965 24.99296,-22.40748z" fill="url(#color-3)" fill-rule="evenodd" stroke-width="1" opacity="0.969"/><path d="M234.82898,200.72114c7.40366,-0.9256 14.29827,0.51078 20.68383,4.30913c7.46916,5.93683 14.93832,11.87424 22.40748,17.81107c4.38152,4.64524 7.15833,10.10347 8.33099,16.3747c0.09595,7.66048 0.19133,15.32154 0.28728,22.98203c0.07182,8.64297 -0.21546,17.26123 -0.86183,25.85478c-2.66017,9.93858 -8.88485,16.54591 -18.6729,19.822c-17.20894,0.93939 -34.44546,1.13072 -51.70956,0.57455c-12.16841,-3.16635 -19.35029,-10.92278 -21.54565,-23.2693c-0.38323,-15.32154 -0.38323,-30.64251 0,-45.96406c0.87906,-6.45106 3.65644,-11.90929 8.33099,-16.3747c6.86875,-5.14395 13.57204,-10.50681 20.10927,-16.08742c3.89373,-2.80955 8.10691,-4.82048 12.64012,-6.03278zM237.70173,219.68132c2.96181,-0.35048 5.64324,0.31945 8.04371,2.01093c5.55418,4.40508 11.10779,8.80959 16.66197,13.21467c1.65011,1.45764 3.08649,3.08534 4.30913,4.88368c0.94111,14.51947 1.13301,29.07456 0.57455,43.66585c-0.96869,2.81185 -2.78829,4.82278 -5.45823,6.03278c-13.57376,0.92847 -27.17108,1.1198 -40.7931,0.57455c-4.14194,-0.49009 -6.91874,-2.69234 -8.33099,-6.60733c-0.38323,-14.17244 -0.38323,-28.34431 0,-42.51675c1.19219,-2.34359 2.81989,-4.35452 4.88368,-6.03278c6.65847,-5.23358 13.36175,-10.30916 20.10927,-15.22559z" fill="url(#color-4)" fill-rule="evenodd" stroke-width="1" opacity="0.969"/></g></g></svg>